<?xml version="1.0" encoding="UTF-8"?>
<svg xmlns="http://www.w3.org/2000/svg" viewBox="0 0 320 220" fill="none">
  <g fill="#6B001C">
    <path d="M38 118V98L66 72L94 98V118H38Z"/>
    <rect x="56" y="100" width="20" height="14" fill="#FAF7F2"/>
    <path d="M66 100V114M56 107H76" stroke="#6B001C" stroke-width="1.2"/>
    <path d="M100 118V92L144 44L188 92V118H100Z"/>
    <path d="M166 24H180V38H166V28H174V24H166Z"/>
    <rect x="126" y="100" width="36" height="16" fill="#FAF7F2"/>
    <path d="M144 100V116M126 108H162" stroke="#6B001C" stroke-width="1.35"/>
    <path d="M194 116V98L220 74L246 98V116H194Z"/>
    <rect x="210" y="100" width="20" height="14" fill="#FAF7F2"/>
    <path d="M220 100V114M210 107H230" stroke="#6B001C" stroke-width="1.2"/>
  </g>
  <text x="160" y="148" text-anchor="middle" fill="#6B001C" font-family="Inter, Arial, sans-serif" font-size="11" font-weight="600" letter-spacing="4">НЕДВИЖИМИ ИМОТИ</text>
  <text x="160" y="178" text-anchor="middle" fill="#6B001C" font-family="Georgia, 'Times New Roman', serif" font-size="22" font-weight="700" letter-spacing="6">&#8226; НАДЕЖДА &#8226;</text>
</svg>
