<?xml version="1.0" encoding="UTF-8"?>
<svg xmlns="http://www.w3.org/2000/svg" viewBox="0 0 360 260" fill="none">
  <!-- Three houses  outlined style, close to original -->
  <g stroke="#6B001C" fill="#6B001C">

    <!-- Left house body -->
    <path d="M28 148 L28 108 L72 68 L116 108 L116 148 Z"
          fill="#6B001C"/>
    <!-- Left house window cutout -->
    <rect x="62" y="116" width="20" height="18" fill="white" rx="1"/>
    <line x1="72" y1="116" x2="72" y2="134" stroke="white" stroke-width="2"/>
    <line x1="62" y1="125" x2="82" y2="125" stroke="white" stroke-width="2"/>

    <!-- Center house body (tallest) -->
    <path d="M102 148 L102 96 L174 28 L246 96 L246 148 Z"
          fill="#6B001C"/>
    <!-- Center chimney -->
    <rect x="218" y="36" width="16" height="24" rx="2" fill="#6B001C"/>
    <!-- Center house window cutout -->
    <rect x="152" y="104" width="44" height="32" fill="white" rx="1"/>
    <line x1="174" y1="104" x2="174" y2="136" stroke="white" stroke-width="2.5"/>
    <line x1="152" y1="120" x2="196" y2="120" stroke="white" stroke-width="2.5"/>

    <!-- Right house body -->
    <path d="M232 148 L232 110 L278 72 L324 110 L324 148 Z"
          fill="#6B001C"/>
    <!-- Right house window cutout -->
    <rect x="268" y="118" width="20" height="18" fill="white" rx="1"/>
    <line x1="278" y1="118" x2="278" y2="136" stroke="white" stroke-width="2"/>
    <line x1="268" y1="127" x2="288" y2="127" stroke="white" stroke-width="2"/>
  </g>

  <!-- Thin gold rule under houses -->
  <line x1="80" y1="157" x2="280" y2="157" stroke="#CFA54A" stroke-width="1.5"/>

  <!--  " -->
  <text
    x="180" y="182"
    text-anchor="middle"
    fill="#6B001C"
    font-family="Georgia, 'Times New Roman', serif"
    font-size="17"
    font-weight="600"
    letter-spacing="3"> "</text>

  <!-- Thin gold rule -->
  <line x1="60" y1="191" x2="300" y2="191" stroke="#CFA54A" stroke-width="1"/>

  <!-- "  " -->
  <text
    x="180" y="232"
    text-anchor="middle"
    fill="#6B001C"
    font-family="Georgia, 'Times New Roman', serif"
    font-size="34"
    font-weight="700"
    letter-spacing="6">&#8226;  &#8226;</text>
</svg>
